<?xml version="1.0" encoding="UTF-8"?>
<!DOCTYPE svg PUBLIC "-//W3C//DTD SVG 1.1//EN" "http://www.w3.org/Graphics/SVG/1.1/DTD/svg11.dtd">
<svg xmlns="http://www.w3.org/2000/svg" version="1.1" width="256px" height="256px" style="shape-rendering:geometricPrecision; text-rendering:geometricPrecision; image-rendering:optimizeQuality; fill-rule:evenodd; clip-rule:evenodd" xmlns:xlink="http://www.w3.org/1999/xlink">
<g><path style="opacity:0.993" fill="#f26a69" d="M 211.5,155.5 C 186.053,150.64 167.22,159.64 155,182.5C 150.088,197.34 150.588,212.007 156.5,226.5C 154.167,228.5 151.833,230.5 149.5,232.5C 82.1407,200.142 36.8074,148.475 13.5,77.5C 27.3924,40.11 53.7258,16.61 92.5,7C 138.825,-0.907486 176.325,13.5925 205,50.5C 227.728,84.3902 229.894,119.39 211.5,155.5 Z"/></g>
<g><path style="opacity:1" fill="#f7f4f9" d="M 104.5,47.5 C 143.045,45.0031 168.212,62.0031 180,98.5C 185.161,132.346 172.661,157.179 142.5,173C 106.779,185.649 78.612,176.149 58,144.5C 42.6838,109.932 49.8505,81.0984 79.5,58C 87.4525,53.3501 95.7859,49.8501 104.5,47.5 Z"/></g>
<g><path style="opacity:1" fill="#df5656" d="M 13.5,77.5 C 36.8074,148.475 82.1407,200.142 149.5,232.5C 133.413,251.884 114.413,255.384 92.5,243C 68.0114,220.529 46.5114,195.695 28,168.5C 18.3112,154.122 11.6446,138.455 8,121.5C 6.42528,106.362 8.25862,91.6951 13.5,77.5 Z"/></g>
<g><path style="opacity:0.992" fill="#cfdbe4" d="M 211.5,155.5 C 237.495,164.025 249.328,182.025 247,209.5C 241.141,235.025 225.141,248.692 199,250.5C 180.548,249.841 166.381,241.841 156.5,226.5C 150.588,212.007 150.088,197.34 155,182.5C 167.22,159.64 186.053,150.64 211.5,155.5 Z"/></g>
<g><path style="opacity:1" fill="#637281" d="M 196.5,171.5 C 198.467,171.261 200.301,171.594 202,172.5C 202.333,181.833 202.667,191.167 203,200.5C 210.415,205.458 217.915,210.291 225.5,215C 228.529,219.656 227.196,221.323 221.5,220C 213.247,214.624 205.08,209.124 197,203.5C 196.5,192.839 196.333,182.172 196.5,171.5 Z"/></g>
</svg>
